<svg width="170" height="170" viewBox="0 0 170 170" fill="none" xmlns="http://www.w3.org/2000/svg">
<path d="M108.824 18.2144C120.713 18.3399 126.764 19.6211 133.037 22.9762C139.042 26.1878 143.792 30.937 147.003 36.9421C150.358 43.2156 151.639 49.266 151.765 61.1549V108.824C151.639 120.713 150.358 126.764 147.003 133.037C143.792 139.042 139.042 143.792 133.037 147.003C126.764 150.358 120.713 151.639 108.824 151.765H61.1549C49.266 151.639 43.2156 150.358 36.9421 147.003C30.937 143.792 26.1878 139.042 22.9762 133.037C19.6211 126.764 18.3399 120.713 18.2144 108.824V61.1549C18.3399 49.266 19.6211 43.2156 22.9762 36.9421C26.1878 30.937 30.937 26.1878 36.9421 22.9762C43.2156 19.6211 49.266 18.3399 61.1549 18.2144H108.824ZM106.788 30.3468H63.1915L59.8074 30.3764C50.826 30.5468 46.8045 31.4721 42.6687 33.684C38.7797 35.7638 35.7638 38.7797 33.684 42.6687C31.4721 46.8045 30.5468 50.826 30.3764 59.8074L30.3468 63.1915V106.788L30.3764 110.172C30.5468 119.153 31.4721 123.175 33.684 127.311C35.7638 131.2 38.7797 134.216 42.6687 136.295C46.8045 138.507 50.826 139.433 59.8074 139.603L63.1915 139.633H106.788L110.172 139.603C119.153 139.433 123.175 138.507 127.311 136.295C131.2 134.216 134.216 131.2 136.295 127.311C138.507 123.175 139.433 119.153 139.603 110.172L139.633 106.788V63.1915L139.603 59.8074C139.433 50.826 138.507 46.8045 136.295 42.6687C134.216 38.7797 131.2 35.7638 127.311 33.684C123.175 31.4721 119.153 30.5468 110.172 30.3764L106.788 30.3468ZM85.0001 54.6429C88.3532 54.6429 91.0715 57.3612 91.0715 60.7144V78.9286H109.286C112.639 78.9286 115.357 81.6469 115.357 85.0001C115.357 88.3532 112.639 91.0715 109.286 91.0715H91.0715V109.286C91.0715 112.639 88.3532 115.357 85.0001 115.357C81.6469 115.357 78.9286 112.639 78.9286 109.286V91.0715H60.7144C57.3612 91.0715 54.6429 88.3532 54.6429 85.0001C54.6429 81.6469 57.3612 78.9286 60.7144 78.9286H78.9286V60.7144C78.9286 57.3612 81.6469 54.6429 85.0001 54.6429Z" fill="white"/>
</svg>
