<svg width="233" height="234" viewBox="0 0 233 234" fill="none" xmlns="http://www.w3.org/2000/svg">
<path fill-rule="evenodd" clip-rule="evenodd" d="M116.653 37.9463C164.825 37.9463 203.875 71.473 203.875 112.83C203.875 154.188 164.825 187.715 116.653 187.715C104.235 187.715 92.4235 185.487 81.7305 181.471C71.869 193.075 55.5758 199.319 32.8612 200.211C30.266 200.313 28.3472 197.531 29.4362 195.118C35.2281 182.147 42.9039 167.283 42.9039 152.747C34.3693 141.253 29.4315 127.537 29.4315 112.83C29.4315 71.473 68.482 37.9463 116.653 37.9463Z" stroke="#E64646" stroke-width="1.6" stroke-linecap="round" stroke-linejoin="round"/>
<path fill-rule="evenodd" clip-rule="evenodd" d="M21.1104 112.831C21.1104 65.7318 65.1226 29.625 116.654 29.625C168.185 29.625 212.197 65.7318 212.197 112.831C212.197 159.929 168.185 196.036 116.654 196.036C105.227 196.036 94.2438 194.29 84.0502 191.072C72.0271 202.293 54.5578 207.687 33.1882 208.527C24.4832 208.869 18.2 199.814 21.845 191.71C27.016 180.131 33.6973 166.858 34.4895 155.281C26.028 142.959 21.1104 128.418 21.1104 112.831ZM116.654 46.2679C71.8421 46.2679 37.7533 77.2145 37.7533 112.831C37.7533 125.62 42.0358 137.619 49.5852 147.786C50.6505 149.22 51.2257 150.96 51.2257 152.747C51.2257 166.342 45.8062 179.169 40.2877 191.343C57.3972 189.526 68.6214 184.047 75.3897 176.082C77.6628 173.407 81.3701 172.446 84.6564 173.681C94.4108 177.344 105.231 179.393 116.654 179.393C161.465 179.393 195.554 148.447 195.554 112.831C195.554 77.2145 161.465 46.2679 116.654 46.2679Z" fill="#2688EB"/>
</svg>
