<svg width="154" height="153" viewBox="0 0 154 153" fill="none" xmlns="http://www.w3.org/2000/svg">
<path fill-rule="evenodd" clip-rule="evenodd" d="M114.07 2.8999C92.4584 2.8999 74.9391 20.4192 74.9391 42.0303C74.9391 63.6415 92.4584 81.1608 114.07 81.1608C135.681 81.1608 153.2 63.6415 153.2 42.0303C153.2 20.4192 135.681 2.8999 114.07 2.8999ZM132.202 30.4195C130.292 28.5093 127.195 28.5093 125.285 30.4195L109.178 46.526L102.854 40.2021C100.944 38.2919 97.8471 38.2919 95.9369 40.2021C94.0268 42.1123 94.0268 45.2093 95.9369 47.1194L105.72 56.9021C107.63 58.8122 110.727 58.8122 112.637 56.9021L132.202 37.3368C134.112 35.4267 134.112 32.3297 132.202 30.4195Z" fill="#2688EB"/>
<path fill-rule="evenodd" clip-rule="evenodd" d="M61.6174 2.8999L65.1565 2.89991C68.7583 2.89991 71.6782 5.81979 71.6782 9.42164C71.6782 13.0235 68.7583 15.9434 65.1565 15.9434H61.9038C52.6618 15.9434 46.124 15.9485 41.0135 16.3677C35.9799 16.7806 32.9096 17.5623 30.4972 18.7968C25.5908 21.3073 21.5967 25.3161 19.0918 30.2531C17.8577 32.6856 17.0779 35.7788 16.6662 40.8384C16.2485 45.9734 16.2434 52.5409 16.2434 61.8184V117.209C16.2434 124.214 16.2499 129.018 16.5688 132.537C16.8979 136.169 17.4847 137.15 17.6599 137.372C18.8888 138.931 20.7471 139.84 22.7099 139.856C22.9737 139.859 24.0912 139.731 27.1459 137.763C30.1054 135.857 33.8825 132.915 39.3893 128.613L51.5901 119.083C51.8615 118.871 52.1302 118.661 52.3966 118.452C56.1598 115.503 59.461 112.916 63.2972 111.873C66.6501 110.961 70.1846 110.961 73.5374 111.873C77.3737 112.916 80.6749 115.503 84.4381 118.452C84.7045 118.661 84.9732 118.871 85.2446 119.083L97.4453 128.613C102.952 132.915 106.729 135.857 109.689 137.763C112.744 139.731 113.861 139.859 114.125 139.856C116.088 139.84 117.946 138.931 119.175 137.372C119.35 137.15 119.937 136.169 120.266 132.537C120.585 129.018 120.591 124.214 120.591 117.209V99.806C120.591 96.2042 123.511 93.2843 127.113 93.2843C130.715 93.2843 133.635 96.2042 133.635 99.806V117.537C133.635 124.134 133.635 129.534 133.256 133.715C132.881 137.852 132.06 142.095 129.419 145.446C125.748 150.103 120.168 152.849 114.236 152.899C109.963 152.936 106.11 150.973 102.626 148.729C99.1054 146.461 94.8593 143.145 89.676 139.096L77.2154 129.363C72.1554 125.41 71.0673 124.718 70.115 124.459C69.0031 124.157 67.8316 124.157 66.7197 124.459C65.7674 124.718 64.6793 125.41 59.6193 129.363L47.1587 139.096C41.9754 143.145 37.7293 146.461 34.209 148.729C30.7251 150.973 26.8719 152.936 22.5984 152.899C16.6671 152.849 11.0863 150.103 7.41571 145.446C4.77473 142.095 3.9535 137.852 3.57858 133.715C3.19977 129.534 3.19985 124.134 3.19995 117.537L3.19996 61.534C3.1999 52.6047 3.19986 45.5067 3.6657 39.7808C4.1426 33.9188 5.13981 28.9243 7.45983 24.3515C11.2076 16.9647 17.1904 10.9539 24.5555 7.18517C29.1185 4.85029 34.1029 3.84731 39.9471 3.3679C45.6534 2.89981 52.7261 2.89985 61.6174 2.8999Z" fill="#2688EB"/>
</svg>
