<svg width="730" height="750" viewBox="0 0 730 750" fill="none" xmlns="http://www.w3.org/2000/svg">
<path d="M277.889 594.185C273.927 599.381 269.02 603.671 264.677 608.517L245.158 631.263C242.501 634.248 239.5 637.5 236.71 641.098C234.072 644.5 231.655 647.496 229.114 649.893C225.5 654.5 222.726 657.076 220 660.5C217.354 663.823 215.154 666.399 212.389 669.629C210.422 671.927 208.856 673.635 207 676C205.911 677.388 204.664 679.461 203.504 680.791L199.614 685.446C199.382 685.727 198.344 686.802 198.272 687.072C198.105 687.699 198.798 690.274 198.922 691.052C199.386 693.97 199.393 696.927 199.302 699.875C198.873 713.838 192.009 727.32 181.897 736.761C171.874 746.119 157.871 749.69 144.401 749.085C138.539 748.822 132.548 747.38 126.944 745.721C117.437 742.906 109.066 739.027 100.433 734.229C90.7434 728.845 81.4814 722.506 73.9784 714.24C60.3294 699.203 48.4299 680.276 49.5691 659.151C50.1141 649.045 53.7674 637.662 59.8394 629.49C62.0994 626.447 65.1144 623.599 67.9554 621.084C80.4884 609.99 96.6394 605.615 113.166 606.687C122.86 607.316 133.534 611.353 141.628 616.668C144.411 618.496 146.997 620.729 149.611 622.793C157.538 629.052 164.205 635.497 170.754 643.196C174.85 648.013 178.315 653.401 182.467 658.097C183.5 659.072 184.003 660.428 185 659.5L185.331 659.316C187.797 657.111 189.624 654.695 191.767 652.206L202.602 639.488L209.731 631.889L228.009 611.031C230.866 607.746 234.226 604.918 237.156 601.697L251.732 584.708L263.207 572.383C265.655 569.616 267.79 566.565 270.104 563.681L277.911 554.158L254.73 557.309C235.294 560.082 214.917 563.506 196.947 553.147C189.613 548.919 183.143 539.284 180.205 531.535C177.259 523.764 176.21 515.822 174.743 507.709L169.633 477.508L165.954 455.451L157.783 397.613L154.007 373.148L148.971 337.665C148.029 330.413 147.792 322.703 145.964 315.633C139.601 315.361 133.124 316.629 126.809 317.268L80.7244 323.578L46.8739 330.165C39.525 331.387 34.0039 329.749 28.0236 325.427C24.8266 323.117 21.9138 320.228 20.0821 316.693C15.3829 307.624 15.051 296.063 14.2477 286.054C13.6463 278.56 13.0099 271.175 13.1811 263.647C13.2758 259.484 13.8165 255.365 14.1355 251.219L15.4668 232.406L16.8624 218.043C16.9483 217.024 17.4235 214.738 17.1985 213.799C16.9436 212.735 15.3927 211.438 14.6328 210.705C12.4557 208.603 10.3156 206.526 8.47988 204.106C4.12998 198.372 1.66518 191.924 0.549678 184.862C-2.02642 168.552 4.76618 150.61 14.3656 137.673C23.0805 125.928 35.3725 115.803 50.2497 113.777C60.9714 112.317 71.1514 115.03 79.7504 121.485C88.3644 127.951 94.5784 137.78 96.0544 148.57C97.7674 161.091 95.6364 172.097 90.1464 183.377C88.3434 187.082 86.6104 190.495 84.1134 193.794C74.0484 207.095 59.6294 216.883 42.8683 219.229L40.486 237.377C38.6252 256.423 38.344 275.373 40.6946 294.381C41.0895 297.574 40.9313 301.868 42.8645 304.509C45.5181 304.496 48.315 303.74 50.9324 303.267L66.2804 300.323L98.7394 294.497L125.344 291.392C131.065 290.896 136.938 290.758 142.581 289.683C143.092 288.716 142.375 285.516 142.232 284.347L136.878 240.615L133.791 209.899C131.628 190.211 129.23 170.664 129.2 150.812C129.194 147.275 129.312 143.783 129.794 140.273C129.94 139.213 130.048 137.666 130.497 136.694C131.471 134.583 134.883 132.926 136.936 131.944L153.387 124.974L193.792 107.318L310.087 56.3368L403.683 15.5272L430.252 4.1886L440.052 0C440.526 11.9305 443.2 24.1667 445.091 35.9491L449.231 64.1875C449.508 65.7686 450.179 68.0409 451.613 68.9557C453.771 70.3319 460.474 70.0125 462.984 69.5311C468.756 68.4238 474.233 66.2582 479.768 64.3698L510.406 53.8685C516.499 51.8345 522.895 49.4597 529.198 48.2765C528.768 68.6352 531.359 89.1667 532.305 109.53L536.002 174.477C536.625 183.246 536.315 192.266 538.111 200.897C542.977 196.366 549.726 192.776 555.439 189.377C562.363 185.258 569.446 179.791 577.538 178.28C584.33 177.012 591.787 177.687 598 181C602.394 183.343 607.056 187.302 610 193.5C610.574 194.708 613.868 208.164 614 209.5C615.5 217 616.4 219.879 618.833 229.326C623.83 248.724 630.061 267.855 639.661 285.527C644.523 294.478 650.601 302.852 656.921 310.804C659.917 310.918 663.35 309.57 666.395 309.171C673.455 308.244 680.777 308.058 687.88 308.56C701.255 309.503 711.503 313.652 720.363 323.969C728.31 333.223 730.161 345.603 729.176 357.424C727.991 371.656 719.188 382.975 708.544 391.875C701.403 397.845 693.503 401.182 684.858 404.287C672.369 408.774 660.017 411.762 646.635 410.439C635.392 409.326 623.859 404.94 616.636 395.876C608.906 386.176 605.604 374.697 606.953 362.427C608.391 349.344 615.454 338.098 624.883 329.207C627.718 326.533 630.957 324.197 633.992 321.755C619.052 306.578 609.552 284.654 602.397 264.858C597.286 250.715 593.658 235.992 590.412 221.324C589.299 216.294 588.669 210.994 587.39 206.042C586.997 204.522 586.77 204.103 585.59 203.091C583.05 203.287 580.829 204.643 578.646 205.86L565.36 213.94L548.017 224.621C544.971 226.552 541.882 228.159 539.164 230.568L555.846 503.061L427.481 526.2L473.57 582.638L481.362 591.996C483.83 595.116 485.585 598.297 488.737 600.856L544.449 583.744C548.609 582.496 552.835 580.983 557.043 579.951C558.058 579.703 560.611 579.6 561.398 579.143C561.418 579.132 561.783 578.438 561.833 578.341C563.418 575.276 564.117 571.785 565.018 568.469C566.756 562.072 568.34 555.262 571.007 549.175C573.695 543.04 576.778 537.575 581.497 532.773C586.624 527.555 595.21 523.534 602.558 523.531C612.672 523.526 624.122 529.279 631.196 536.276C635.066 540.104 639.132 544.136 642.383 548.507C655.001 565.473 657.776 585.16 657.889 605.728C657.93 613.009 657.183 620.117 656.174 627.317C653.979 642.972 649.577 660.738 638.033 672.281C628.824 681.489 620.589 684.301 607.672 684.253C597.725 684.216 588.771 681.394 581.669 674.233C573.027 665.516 568.441 654.367 565.217 642.718C564.055 638.52 562.823 634.148 562.244 629.833C561.177 621.884 561.344 613.926 561.397 605.931C557.058 606.426 552.917 608.414 548.749 609.646L524.575 616.835L502.797 623.775C498.043 625.094 493.322 626.33 488.35 626.297C483.314 626.263 477.07 624.176 473.032 621.095C467.76 617.071 463.445 611.071 459.22 605.988L438.018 579.871L408.709 544.765L400.576 534.963C399.699 533.965 398.619 532.369 397.428 531.851L352.077 540.407L334.291 543.769C329.641 544.641 324.848 545.27 320.313 546.625C319.203 546.956 318.348 547.444 317.467 548.184C317.386 549.147 316.042 550.156 315.5 551C313.779 553.681 312.073 555.908 309.912 558.323L292.987 577.226L277.889 594.185Z" fill="black"/>
<path d="M195.246 520.559C196.528 520.485 198.508 520.141 199.707 520.566C202.504 521.556 205.059 522.719 207.967 523.466C221.652 526.98 236.969 527.243 251.001 526.773L252.224 530.066C252.889 532.293 254.169 537.895 253.086 539.92L251.563 540.552L239.292 542.591C228.079 543.956 212.412 544.141 203.216 536.561C198.198 532.426 195.907 526.913 195.246 520.559Z" fill="#FBD213"/>
<path d="M147.068 168.981C152.866 169.91 158.427 172.655 164.262 173.912C178.926 177.07 193.8 176.629 208.683 176.027C209.292 178.687 211.359 188.951 210.539 190.998C210.328 191.523 208.644 191.864 208.076 192.054L187.901 194.474C176.903 195.265 165.394 195.035 154.83 191.496C153.472 191.041 151.187 190.479 150.172 189.446C148.826 188.077 148.59 185.712 148.327 183.903C147.621 179.05 146.791 173.887 147.068 168.981Z" fill="#FBD213"/>
<path d="M49.8814 131C54.4688 130.232 60.9838 130.755 65.2218 132.827C71.5898 135.94 76.0418 141.287 78.1868 148.012C81.0348 156.943 78.7058 168.17 74.4058 176.296C68.1828 188.058 58.5788 197.351 45.7321 201.297C40.7865 202.434 33.7196 202.021 28.9518 200.134C24.5162 198.379 20.7034 193.661 19.0351 189.311C15.4574 179.981 17.1762 168.909 21.2207 159.991C26.878 147.517 36.9001 135.952 49.8814 131Z" fill="#FEFEFE"/>
<path d="M420.059 42.4319L399.606 50.7143L353.04 69.396L249.58 112.964L186.73 140.359C178.122 144.004 169.494 148.158 160.547 150.89C158.032 151.658 155.498 152.63 152.864 152.859C150.104 152.14 148.363 149.59 146.737 147.408C148.957 145.898 151.537 144.766 153.934 143.55L174.914 134.144L229.607 110.426L308.561 75.4812L377.969 45.3567L425.166 24.5107C427.016 28.9631 427.481 34.9164 428.181 39.6957L427.368 40.6761C424.672 40.7133 422.327 40.8211 420.059 42.4319Z" fill="#FBD213"/>
<path d="M417.137 58.1748C418.695 58.4669 422.195 63.6708 423.468 65.0086C427.346 69.0813 431.484 72.3454 436.196 75.3843L419.894 80.8001L397.821 88.3667L314.231 117.701L261.789 136.141L230.378 147.143C223.633 149.408 217.244 151.83 210.237 153.288C206.499 153.462 193.859 154.891 191.235 153.52L191.013 152.724C192.477 151.455 194.77 150.766 196.555 150.01L208.094 145.169L231.974 134.864L281.565 113.149L355.741 82.0969L397.907 65.1333C404.237 62.7035 410.473 59.5376 417.137 58.1748Z" fill="#FEFEFE"/>
<path d="M678.531 325.446C686.052 325.101 696.745 325.847 703.093 330.272C707.704 333.486 710.449 339.243 711.415 344.648C712.98 353.417 711.873 362.106 706.696 369.515C703.643 373.884 699.624 377.18 695.253 380.162C692.202 382.244 689.004 384.628 685.666 386.21C677.504 390.077 667.373 391.811 658.464 393.37C650.35 393.661 638.727 393.49 632.322 387.835C626.819 382.977 624.014 374.943 623.635 367.743C623.191 359.296 628.018 351.429 633.53 345.425C645.493 332.398 661.15 326.241 678.531 325.446Z" fill="#FEFEFE"/>
<path d="M599.734 540.944C603.474 540.763 606.095 541.356 609.54 542.785C621.638 547.805 630.345 559.492 635.271 571.311C643.04 589.951 641.259 611.879 637.888 631.316C636.864 637.217 635.777 643.976 633.378 649.472C631.626 653.487 627.865 659.896 624.367 662.574C622.428 664.06 620.145 664.904 617.883 665.762C611.224 667.522 603.786 667.946 597.373 665.046C590.843 662.094 587.083 654.678 584.743 648.221C582.248 641.332 581.108 634.719 580.048 627.504C577.339 609.057 577.804 589.661 582.029 571.488C583.385 565.656 585.146 559.101 587.74 553.693C590.267 548.424 594.071 542.913 599.734 540.944Z" fill="#FEFEFE"/>
<path d="M106.01 623.706L111.75 623.701C129.397 624.479 144.364 640.186 155.593 652.508C162.703 660.309 169.127 668.496 174.895 677.319C177.329 681.042 179.949 684.61 181.163 688.942C182.159 692.5 181.806 697.035 181.611 700.711C181.138 709.61 175.454 719.041 168.91 724.877C166.538 726.992 163.872 729.14 160.905 730.349C155.388 732.599 148.024 732.009 142.169 731.68C127.712 729.911 114.094 723.147 102.195 714.982C99.4674 713.11 96.6594 711.4 94.1584 709.218C86.9064 702.887 80.1464 695.221 74.9824 687.091C73.4504 684.678 71.7274 682.169 70.6004 679.539C68.3794 674.357 67.2134 668.455 66.8544 662.851C66.2544 653.484 69.7274 644.294 75.9524 637.297C83.8374 628.434 94.4094 624.367 106.01 623.706Z" fill="#FEFEFE"/>
<path d="M211.276 208.946C211.859 208.943 212.016 209.18 212.487 209.499C214.371 214.254 214.66 220.164 215.209 225.246L217.769 249.399L226.512 316.825L230.171 349.305L237.905 408.398L243.535 455.91L247.511 489.36C248.399 496.276 249.867 503.121 250.104 510.103C231.347 510.213 213.426 509.05 195.82 501.956C194.374 501.329 192.471 500.711 191.325 499.617C188.796 497.202 184.154 459.133 183.202 452.896L158.673 276.886L153.546 234.622L150.995 209.453C156.372 210.333 161.596 211.237 167.043 211.585C181.857 212.531 196.628 211.058 211.276 208.946Z" fill="#FBD213"/>
<path d="M511.764 71.5068L512.376 71.9296C513.919 76.8917 513.595 83.7684 513.879 89.0218L515.681 127.058L519.84 188.261L522.583 247.359L525.517 289.74L531.314 383.201L534.281 447.023L537.446 488.829C533.097 490.231 528.43 490.76 523.925 491.44L510.211 493.79L454.523 504.077L350.62 522.963L307.406 531.145L290.614 533.698L270.22 537.653L268.876 521.528L226.143 171.862L511.764 71.5068Z" fill="#FBD213"/>
</svg>
