<svg width="242" height="242" viewBox="0 0 242 242" fill="none" xmlns="http://www.w3.org/2000/svg">
<path d="M83.312 2.45378V6.13445C83.312 7.49003 84.4114 8.57964 85.7684 8.57964H89.453C90.8186 8.57964 91.9094 7.48145 91.9094 6.12587V2.45378C91.9008 1.08961 90.8014 0 89.4444 0H85.7684C84.4114 0 83.312 1.09819 83.312 2.45378Z" fill="black"/>
<path d="M139.268 8.4076V8.57919H141.887V5.9624H141.716C141.716 7.31799 140.616 8.4076 139.268 8.4076Z" fill="black"/>
<path d="M150.218 8.57959L141.629 8.57959V2.91702C141.629 1.30597 142.936 -5.43594e-05 144.549 -5.43594e-05H150.218V8.57959Z" fill="black"/>
<path d="M158.55 0H149.961V8.57964H158.55V0Z" fill="black"/>
<path d="M158.292 8.57959V2.91702C158.292 1.30597 159.599 -5.43594e-05 161.212 -5.43594e-05H163.96C165.573 -5.43594e-05 166.881 1.30597 166.881 2.91702V8.57959H158.292Z" fill="black"/>
<path d="M108.304 10.776V14.4567C108.304 15.8123 109.404 16.9019 110.761 16.9019H114.445C115.811 16.9019 116.902 15.8037 116.902 14.4481V10.776C116.893 9.41188 115.794 8.32227 114.437 8.32227H110.761C109.404 8.32227 108.304 9.42046 108.304 10.776Z" fill="black"/>
<path d="M122.605 16.7299V16.9015H125.225V14.2847H125.053C125.053 15.6403 123.954 16.7299 122.605 16.7299Z" fill="black"/>
<path d="M133.556 16.9019H124.967V11.2393C124.967 9.62823 126.274 8.32221 127.887 8.32221H133.556V16.9019Z" fill="black"/>
<path d="M141.888 8.32227H133.299V16.9019H141.888V8.32227Z" fill="black"/>
<path d="M150.218 8.32227H141.629V16.9019H150.218V8.32227Z" fill="black"/>
<path d="M149.961 8.32227H158.55V13.9848C158.55 15.5959 157.243 16.9019 155.63 16.9019H149.961V8.32227Z" fill="black"/>
<path d="M166.624 16.9019V11.2393C166.624 9.62823 167.931 8.32221 169.544 8.32221H172.293C173.905 8.32221 175.213 9.62823 175.213 11.2393V16.9019H166.624Z" fill="black"/>
<path d="M66.6497 25.2241V19.5616C66.6497 17.9505 67.9571 16.6445 69.5699 16.6445H72.3183C73.931 16.6445 75.2385 17.9505 75.2385 19.5616V25.2241H66.6497Z" fill="black"/>
<path d="M125.226 25.2241H119.557C117.944 25.2241 116.637 23.9181 116.637 22.307V19.5616C116.637 17.9505 117.944 16.6445 119.557 16.6445H125.226V25.2241Z" fill="black"/>
<path d="M124.967 16.6445H133.556V22.3071C133.556 23.9182 132.248 25.2242 130.635 25.2242H124.967V16.6445Z" fill="black"/>
<path d="M164.26 25.0521V25.2237H166.88V22.6069H166.708C166.708 23.9625 165.609 25.0521 164.26 25.0521Z" fill="black"/>
<path d="M175.213 16.6445H166.624V25.2242H175.213V16.6445Z" fill="black"/>
<path d="M75.2385 24.9668V30.6294C75.2385 32.2404 73.9311 33.5464 72.3183 33.5464H69.5699C67.9571 33.5464 66.6497 32.2404 66.6497 30.6294V24.9668H75.2385Z" fill="black"/>
<path d="M100.231 33.5464H94.5623C92.9496 33.5464 91.6422 32.2404 91.6422 30.6293V27.8838C91.6422 26.2728 92.9496 24.9667 94.5623 24.9667H100.231V33.5464Z" fill="black"/>
<path d="M108.563 24.9668H99.9744V33.5464H108.563V24.9668Z" fill="black"/>
<path d="M108.304 33.5464V27.8838C108.304 26.2728 109.612 24.9667 111.225 24.9667H113.973C115.586 24.9667 116.893 26.2728 116.893 27.8838V33.5464H108.304Z" fill="black"/>
<path d="M141.888 33.5464H133.299V27.8838C133.299 26.2728 134.607 24.9667 136.219 24.9667H141.888V33.5464Z" fill="black"/>
<path d="M141.629 33.5459V24.9663H147.298C148.91 24.9663 150.218 26.2723 150.218 27.8833V33.5459H141.629Z" fill="black"/>
<path d="M155.93 33.3749V33.5465H158.55V30.9297H158.378C158.378 32.2853 157.279 33.3749 155.93 33.3749Z" fill="black"/>
<path d="M166.88 33.5459H158.292V27.8833C158.292 26.2723 159.599 24.9663 161.212 24.9663H166.88V33.5459Z" fill="black"/>
<path d="M166.624 24.9668H175.213V30.6294C175.213 32.2404 173.905 33.5464 172.293 33.5464H166.624V24.9668Z" fill="black"/>
<path d="M108.563 33.2896H99.9744V41.8692H108.563V33.2896Z" fill="black"/>
<path d="M141.888 33.2896V41.8692H136.219C134.607 41.8692 133.299 40.5632 133.299 38.9521V33.2896H141.888Z" fill="black"/>
<path d="M150.218 33.2886H141.629V41.8682H150.218V33.2886Z" fill="black"/>
<path d="M158.55 33.2896H149.961V41.8692H158.55V33.2896Z" fill="black"/>
<path d="M158.292 33.2886H166.88V38.9511C166.88 40.5622 165.573 41.8682 163.96 41.8682H158.292V33.2886Z" fill="black"/>
<path d="M100.231 50.1914H94.5623C92.9496 50.1914 91.6422 48.8854 91.6422 47.2743V44.5288C91.6422 42.9178 92.9496 41.6118 94.5623 41.6118H100.231V50.1914Z" fill="black"/>
<path d="M108.563 41.6118H99.9744V50.1915H108.563V41.6118Z" fill="black"/>
<path d="M116.893 41.6118H108.304V50.1915H116.893V41.6118Z" fill="black"/>
<path d="M116.637 50.1914V41.6118H122.305C123.918 41.6118 125.226 42.9178 125.226 44.5288V50.1914H116.637Z" fill="black"/>
<path d="M150.218 41.6118V50.1915H144.549C142.936 50.1915 141.629 48.8854 141.629 47.2744V41.6118H150.218Z" fill="black"/>
<path d="M158.55 41.6118H149.961V50.1915H158.55V41.6118Z" fill="black"/>
<path d="M66.6497 52.3879V56.0685C66.6497 57.4241 67.749 58.5137 69.1061 58.5137H72.7907C74.1563 58.5137 75.247 57.4155 75.247 56.0599V52.3879C75.2385 51.0237 74.1391 49.9341 72.7821 49.9341H69.1061C67.749 49.9341 66.6497 51.0323 66.6497 52.3879Z" fill="black"/>
<path d="M80.9485 58.3417V58.5133H83.5681V55.8965H83.3963C83.3963 57.2521 82.2969 58.3417 80.9485 58.3417Z" fill="black"/>
<path d="M83.312 58.5137V52.8511C83.312 51.24 84.6194 49.934 86.2322 49.934H88.9806C90.5934 49.934 91.9008 51.24 91.9008 52.8511V58.5137H83.312Z" fill="black"/>
<path d="M108.563 49.9341V55.5966C108.563 57.2077 107.256 58.5137 105.643 58.5137H102.895C101.282 58.5137 99.9744 57.2077 99.9744 55.5966V49.9341H108.563Z" fill="black"/>
<path d="M125.226 49.9341V55.5966C125.226 57.2077 123.918 58.5137 122.305 58.5137H119.557C117.944 58.5137 116.637 57.2077 116.637 55.5966V49.9341H125.226Z" fill="black"/>
<path d="M133.299 52.3879V56.0685C133.299 57.4241 134.398 58.5137 135.755 58.5137H139.44C140.806 58.5137 141.896 57.4155 141.896 56.0599V52.3879C141.888 51.0237 140.789 49.9341 139.431 49.9341H135.755C134.398 49.9341 133.299 51.0323 133.299 52.3879Z" fill="black"/>
<path d="M158.55 49.9341V55.5966C158.55 57.2077 157.243 58.5137 155.63 58.5137H152.881C151.269 58.5137 149.961 57.2077 149.961 55.5966V49.9341H158.55Z" fill="black"/>
<path d="M166.624 52.3879V56.0685C166.624 57.4241 167.723 58.5137 169.08 58.5137H172.765C174.131 58.5137 175.221 57.4155 175.221 56.0599V52.3879C175.213 51.0237 174.113 49.9341 172.756 49.9341H169.08C167.723 49.9341 166.624 51.0323 166.624 52.3879Z" fill="black"/>
<path d="M83.5684 66.8359H74.9796V61.1734C74.9796 59.5623 76.287 58.2563 77.8997 58.2563H83.5684V66.8359Z" fill="black"/>
<path d="M83.312 58.2563H91.9008V63.9189C91.9008 65.53 90.5934 66.836 88.9806 66.836H83.312V58.2563Z" fill="black"/>
<path d="M108.304 66.8359V61.1734C108.304 59.5623 109.612 58.2563 111.225 58.2563H113.973C115.586 58.2563 116.893 59.5623 116.893 61.1734V66.8359H108.304Z" fill="black"/>
<path d="M158.292 60.7101V64.3908C158.292 65.7464 159.391 66.836 160.748 66.836H164.432C165.798 66.836 166.889 65.7378 166.889 64.3822V60.7101C166.88 59.346 165.781 58.2563 164.424 58.2563H160.748C159.391 58.2563 158.292 59.3545 158.292 60.7101Z" fill="black"/>
<path d="M33.5811 75.1582H27.9124C26.2997 75.1582 24.9923 73.8522 24.9923 72.2411V69.4956C24.9923 67.8846 26.2997 66.5786 27.9124 66.5786H33.5811V75.1582Z" fill="black"/>
<path d="M33.3247 75.1582V69.4956C33.3247 67.8846 34.6321 66.5786 36.2449 66.5786H38.9933C40.6061 66.5786 41.9135 67.8846 41.9135 69.4956V75.1582H33.3247Z" fill="black"/>
<path d="M58.5759 75.1582H52.9073C51.2945 75.1582 49.9871 73.8522 49.9871 72.2411V69.4956C49.9871 67.8846 51.2945 66.5786 52.9073 66.5786H58.5759V75.1582Z" fill="black"/>
<path d="M58.3171 75.1582V66.5786H63.9857C65.5985 66.5786 66.9059 67.8846 66.9059 69.4956V75.1582H58.3171Z" fill="black"/>
<path d="M72.6182 74.9862V75.1578H75.2377V72.541H75.066C75.066 73.8966 73.9666 74.9862 72.6182 74.9862Z" fill="black"/>
<path d="M83.5685 66.5786H74.9797V75.1583H83.5685V66.5786Z" fill="black"/>
<path d="M91.6421 69.0324V72.7131C91.6421 74.0686 92.7415 75.1583 94.0985 75.1583H97.7831C99.1487 75.1583 100.239 74.0601 100.239 72.7045V69.0324C100.231 67.6682 99.1315 66.5786 97.7745 66.5786H94.0985C92.7415 66.5786 91.6421 67.6768 91.6421 69.0324Z" fill="black"/>
<path d="M116.893 66.5786V75.1583H111.225C109.612 75.1583 108.305 73.8522 108.305 72.2412V66.5786H116.893Z" fill="black"/>
<path d="M116.637 75.1582V69.4956C116.637 67.8846 117.944 66.5786 119.557 66.5786H122.305C123.918 66.5786 125.226 67.8846 125.226 69.4956V75.1582H116.637Z" fill="black"/>
<path d="M133.299 75.1582V69.4956C133.299 67.8846 134.606 66.5786 136.219 66.5786H138.968C140.58 66.5786 141.888 67.8846 141.888 69.4956V75.1582H133.299Z" fill="black"/>
<path d="M149.961 69.0324V72.7131C149.961 74.0686 151.061 75.1583 152.418 75.1583H156.102C157.468 75.1583 158.559 74.0601 158.559 72.7045V69.0324C158.55 67.6682 157.451 66.5786 156.094 66.5786H152.418C151.061 66.5786 149.961 67.6768 149.961 69.0324Z" fill="black"/>
<path d="M216.867 75.1582H211.199C209.586 75.1582 208.278 73.8522 208.278 72.2411V69.4956C208.278 67.8846 209.586 66.5786 211.199 66.5786H216.867V75.1582Z" fill="black"/>
<path d="M216.609 75.1582V66.5786H222.277C223.89 66.5786 225.198 67.8846 225.198 69.4956V75.1582H216.609Z" fill="black"/>
<path d="M16.6624 77.3547V81.0353C16.6624 82.3909 17.7617 83.4805 19.1188 83.4805H22.8033C24.169 83.4805 25.2597 82.3823 25.2597 81.0267V77.3547C25.2512 75.9905 24.1518 74.9009 22.7948 74.9009H19.1188C17.7617 74.9009 16.6624 75.9991 16.6624 77.3547Z" fill="black"/>
<path d="M66.9059 74.9009H58.3171V83.4805H66.9059V74.9009Z" fill="black"/>
<path d="M75.2385 74.9009H66.6497V83.4805H75.2385V74.9009Z" fill="black"/>
<path d="M83.5685 74.9009H74.9797V83.4805H83.5685V74.9009Z" fill="black"/>
<path d="M97.6108 83.3085V83.4801H100.23V80.8633H100.059C100.059 82.2189 98.9593 83.3085 97.6108 83.3085Z" fill="black"/>
<path d="M99.9744 83.4805V77.8179C99.9744 76.2068 101.282 74.9008 102.895 74.9008H105.643C107.256 74.9008 108.563 76.2068 108.563 77.8179V83.4805H99.9744Z" fill="black"/>
<path d="M141.888 74.9009V80.5634C141.888 82.1745 140.581 83.4805 138.968 83.4805H136.219C134.607 83.4805 133.299 82.1745 133.299 80.5634V74.9009H141.888Z" fill="black"/>
<path d="M175.213 83.4805H169.544C167.931 83.4805 166.624 82.1744 166.624 80.5634V77.8179C166.624 76.2068 167.931 74.9008 169.544 74.9008H175.213V83.4805Z" fill="black"/>
<path d="M183.543 74.9009H174.954V83.4805H183.543V74.9009Z" fill="black"/>
<path d="M191.873 74.9009H183.284V83.4805H191.873V74.9009Z" fill="black"/>
<path d="M200.205 74.9009H191.616V83.4805H200.205V74.9009Z" fill="black"/>
<path d="M199.947 83.4805V74.9008H205.615C207.228 74.9008 208.535 76.2068 208.535 77.8179V83.4805H199.947Z" fill="black"/>
<path d="M225.198 74.9009V83.4805H219.529C217.916 83.4805 216.609 82.1745 216.609 80.5634V74.9009H225.198Z" fill="black"/>
<path d="M224.941 83.4805V77.8179C224.941 76.2068 226.248 74.9008 227.861 74.9008H230.61C232.222 74.9008 233.53 76.2068 233.53 77.8179V83.4805H224.941Z" fill="black"/>
<path d="M8.58862 91.8027H-0.000180244V86.1402C-0.000180244 84.5291 1.30723 83.2231 2.92001 83.2231H8.58862L8.58862 91.8027Z" fill="black"/>
<path d="M8.33008 91.8027V86.1402C8.33008 84.5291 9.63749 83.2231 11.2503 83.2231H13.9987C15.6115 83.2231 16.9189 84.5291 16.9189 86.1402V91.8027H8.33008Z" fill="black"/>
<path d="M58.5759 91.8027H52.9073C51.2945 91.8027 49.9871 90.4967 49.9871 88.8857V86.1402C49.9871 84.5291 51.2945 83.2231 52.9073 83.2231H58.5759V91.8027Z" fill="black"/>
<path d="M66.9059 83.2231H58.3171V91.8028H66.9059V83.2231Z" fill="black"/>
<path d="M83.5686 83.2231V91.8028H77.9C76.2872 91.8028 74.9798 90.4968 74.9798 88.8857V83.2231H83.5686Z" fill="black"/>
<path d="M91.9008 83.2231H83.312V91.8028H91.9008V83.2231Z" fill="black"/>
<path d="M100.231 83.2231H91.6421V91.8028H100.231V83.2231Z" fill="black"/>
<path d="M99.9744 83.2231H108.563V88.8857C108.563 90.4968 107.256 91.8028 105.643 91.8028H99.9744V83.2231Z" fill="black"/>
<path d="M125.226 91.8027H119.557C117.944 91.8027 116.637 90.4967 116.637 88.8857V86.1402C116.637 84.5291 117.944 83.2231 119.557 83.2231H125.226V91.8027Z" fill="black"/>
<path d="M124.967 91.8027V86.1402C124.967 84.5291 126.274 83.2231 127.887 83.2231H130.635C132.248 83.2231 133.556 84.5291 133.556 86.1402V91.8027H124.967Z" fill="black"/>
<path d="M183.543 83.2231V91.8028H177.874C176.261 91.8028 174.954 90.4968 174.954 88.8857V83.2231H183.543Z" fill="black"/>
<path d="M183.284 83.2231H191.873V88.8857C191.873 90.4968 190.565 91.8028 188.953 91.8028H183.284V83.2231Z" fill="black"/>
<path d="M208.535 83.2231H199.947V91.8028H208.535V83.2231Z" fill="black"/>
<path d="M8.5888 91.5444H0V100.124H8.5888V91.5444Z" fill="black"/>
<path d="M22.6318 99.9525V100.124H25.2514V97.5073H25.0796C25.0796 98.8629 23.9803 99.9525 22.6318 99.9525Z" fill="black"/>
<path d="M33.5811 100.124H24.9923V94.4615C24.9923 92.8504 26.2997 91.5444 27.9124 91.5444H33.5811V100.124Z" fill="black"/>
<path d="M33.3247 100.124V94.4615C33.3247 92.8504 34.6321 91.5444 36.2449 91.5444H38.9933C40.6061 91.5444 41.9135 92.8504 41.9135 94.4615V100.124H33.3247Z" fill="black"/>
<path d="M66.9059 91.5444H58.3171V100.124H66.9059V91.5444Z" fill="black"/>
<path d="M91.9009 91.5444V97.207C91.9009 98.8181 90.5935 100.124 88.9807 100.124H86.2323C84.6195 100.124 83.3121 98.8181 83.3121 97.207V91.5444H91.9009Z" fill="black"/>
<path d="M133.299 93.9982V97.6789C133.299 99.0345 134.398 100.124 135.755 100.124H139.44C140.806 100.124 141.896 99.0259 141.896 97.6703V93.9982C141.888 92.634 140.789 91.5444 139.431 91.5444H135.755C134.398 91.5444 133.299 92.6426 133.299 93.9982Z" fill="black"/>
<path d="M158.292 93.9982V97.6789C158.292 99.0345 159.391 100.124 160.748 100.124H164.432C165.798 100.124 166.889 99.0259 166.889 97.6703V93.9982C166.88 92.634 165.781 91.5444 164.424 91.5444H160.748C159.391 91.5444 158.292 92.6426 158.292 93.9982Z" fill="black"/>
<path d="M200.205 100.124H194.536C192.924 100.124 191.616 98.818 191.616 97.2069V94.4615C191.616 92.8504 192.924 91.5444 194.536 91.5444H200.205V100.124Z" fill="black"/>
<path d="M208.535 91.5444H199.947V100.124H208.535V91.5444Z" fill="black"/>
<path d="M208.279 100.124V94.4615C208.279 92.8504 209.586 91.5444 211.199 91.5444H213.947C215.56 91.5444 216.867 92.8504 216.867 94.4615V100.124H208.279Z" fill="black"/>
<path d="M233.271 93.9982V97.6789C233.271 99.0345 234.37 100.124 235.727 100.124H239.412C240.778 100.124 241.868 99.0259 241.868 97.6703V93.9982C241.86 92.634 240.76 91.5444 239.403 91.5444H235.727C234.37 91.5444 233.271 92.6426 233.271 93.9982Z" fill="black"/>
<path d="M8.5888 99.8667H0V108.446H8.5888V99.8667Z" fill="black"/>
<path d="M25.251 108.446H16.6622V102.784C16.6622 101.173 17.9696 99.8666 19.5824 99.8666H25.251V108.446Z" fill="black"/>
<path d="M24.9924 99.8667H33.5812V105.529C33.5812 107.14 32.2738 108.446 30.661 108.446H24.9924V99.8667Z" fill="black"/>
<path d="M50.2437 108.446H44.575C42.9623 108.446 41.6548 107.14 41.6548 105.529V102.784C41.6548 101.173 42.9623 99.8666 44.575 99.8666H50.2437V108.446Z" fill="black"/>
<path d="M58.5761 99.8667H49.9873V108.446H58.5761V99.8667Z" fill="black"/>
<path d="M66.9059 99.8667H58.3171V108.446H66.9059V99.8667Z" fill="black"/>
<path d="M66.6497 108.446V99.8666H72.3183C73.931 99.8666 75.2385 101.173 75.2385 102.784V108.446H66.6497Z" fill="black"/>
<path d="M100.231 108.446H94.5623C92.9496 108.446 91.6422 107.14 91.6422 105.529V102.784C91.6422 101.173 92.9496 99.8666 94.5623 99.8666H100.231V108.446Z" fill="black"/>
<path d="M99.9744 108.446V99.8666H105.643C107.256 99.8666 108.563 101.173 108.563 102.784V108.446H99.9744Z" fill="black"/>
<path d="M125.226 108.446H119.557C117.944 108.446 116.637 107.14 116.637 105.529V102.784C116.637 101.173 117.944 99.8666 119.557 99.8666H125.226V108.446Z" fill="black"/>
<path d="M124.967 108.446V102.784C124.967 101.173 126.274 99.8666 127.887 99.8666H130.635C132.248 99.8666 133.556 101.173 133.556 102.784V108.446H124.967Z" fill="black"/>
<path d="M150.218 108.446H141.629V102.784C141.629 101.173 142.936 99.8666 144.549 99.8666H150.218V108.446Z" fill="black"/>
<path d="M149.961 108.446V99.8666H155.63C157.243 99.8666 158.55 101.173 158.55 102.784V108.446H149.961Z" fill="black"/>
<path d="M175.213 108.446H169.544C167.931 108.446 166.624 107.14 166.624 105.529V102.784C166.624 101.173 167.931 99.8666 169.544 99.8666H175.213V108.446Z" fill="black"/>
<path d="M183.543 99.8667H174.954V108.446H183.543V99.8667Z" fill="black"/>
<path d="M183.284 108.446V99.8666H188.953C190.565 99.8666 191.873 101.173 191.873 102.784V108.446H183.284Z" fill="black"/>
<path d="M222.58 108.275V108.447H225.199V105.83H225.028C225.028 107.186 223.928 108.275 222.58 108.275Z" fill="black"/>
<path d="M224.941 108.446V102.784C224.941 101.173 226.248 99.8666 227.861 99.8666H230.61C232.222 99.8666 233.53 101.173 233.53 102.784V108.446H224.941Z" fill="black"/>
<path d="M8.5888 108.189H0V116.769H8.5888V108.189Z" fill="black"/>
<path d="M25.2512 108.189V113.852C25.2512 115.463 23.9438 116.769 22.331 116.769H19.5826C17.9698 116.769 16.6624 115.463 16.6624 113.852V108.189H25.2512Z" fill="black"/>
<path d="M33.3247 116.769V111.106C33.3247 109.495 34.6321 108.189 36.2449 108.189H38.9933C40.6061 108.189 41.9135 109.495 41.9135 111.106V116.769H33.3247Z" fill="black"/>
<path d="M66.906 108.189V116.769H61.2374C59.6246 116.769 58.3172 115.463 58.3172 113.852V108.189H66.906Z" fill="black"/>
<path d="M75.2385 108.189H66.6497V116.769H75.2385V108.189Z" fill="black"/>
<path d="M108.563 108.189V113.852C108.563 115.463 107.256 116.769 105.643 116.769H102.895C101.282 116.769 99.9744 115.463 99.9744 113.852V108.189H108.563Z" fill="black"/>
<path d="M150.218 108.189V116.769H144.549C142.936 116.769 141.629 115.463 141.629 113.852V108.189H150.218Z" fill="black"/>
<path d="M149.961 108.189H158.55V113.852C158.55 115.463 157.243 116.769 155.63 116.769H149.961V108.189Z" fill="black"/>
<path d="M191.873 108.189H183.284V116.769H191.873V108.189Z" fill="black"/>
<path d="M199.947 110.643V114.323C199.947 115.679 201.046 116.769 202.403 116.769H206.088C207.453 116.769 208.544 115.67 208.544 114.315V110.643C208.535 109.279 207.436 108.189 206.079 108.189H202.403C201.046 108.189 199.947 109.287 199.947 110.643Z" fill="black"/>
<path d="M225.198 116.769H219.529C217.916 116.769 216.609 115.463 216.609 113.851V111.106C216.609 109.495 217.916 108.189 219.529 108.189H225.198V116.769Z" fill="black"/>
<path d="M233.53 108.189H224.941V116.769H233.53V108.189Z" fill="black"/>
<path d="M233.271 116.769V108.189H238.94C240.552 108.189 241.86 109.495 241.86 111.106V116.769H233.271Z" fill="black"/>
<path d="M8.58887 116.511V125.091H2.92026C1.30748 125.091 6.38962e-05 123.785 6.38962e-05 122.174V116.511H8.58887Z" fill="black"/>
<path d="M8.33008 125.091V116.511H13.9987C15.6115 116.511 16.9189 117.817 16.9189 119.428V125.091H8.33008Z" fill="black"/>
<path d="M41.9135 116.511H33.3247V125.091H41.9135V116.511Z" fill="black"/>
<path d="M49.9873 118.965V122.646C49.9873 124.001 51.0867 125.091 52.4437 125.091H56.1283C57.4939 125.091 58.5847 123.993 58.5847 122.637V118.965C58.5761 117.601 57.4767 116.511 56.1197 116.511H52.4437C51.0867 116.511 49.9873 117.609 49.9873 118.965Z" fill="black"/>
<path d="M75.2385 116.511H66.6497V125.091H75.2385V116.511Z" fill="black"/>
<path d="M91.6421 118.965V122.646C91.6421 124.001 92.7415 125.091 94.0985 125.091H97.7831C99.1487 125.091 100.239 123.993 100.239 122.637V118.965C100.231 117.601 99.1315 116.511 97.7745 116.511H94.0985C92.7415 116.511 91.6421 117.609 91.6421 118.965Z" fill="black"/>
<path d="M108.304 118.965V122.646C108.304 124.001 109.404 125.091 110.761 125.091H114.445C115.811 125.091 116.902 123.993 116.902 122.637V118.965C116.893 117.601 115.794 116.511 114.437 116.511H110.761C109.404 116.511 108.304 117.609 108.304 118.965Z" fill="black"/>
<path d="M133.299 118.965V122.646C133.299 124.001 134.398 125.091 135.755 125.091H139.44C140.806 125.091 141.896 123.993 141.896 122.637V118.965C141.888 117.601 140.789 116.511 139.431 116.511H135.755C134.398 116.511 133.299 117.609 133.299 118.965Z" fill="black"/>
<path d="M155.93 124.92V125.092H158.55V122.475H158.378C158.378 123.831 157.279 124.92 155.93 124.92Z" fill="black"/>
<path d="M166.88 125.091H158.292V119.428C158.292 117.817 159.599 116.511 161.212 116.511H166.88V125.091Z" fill="black"/>
<path d="M166.624 125.091V116.511H172.293C173.905 116.511 175.213 117.817 175.213 119.428V125.091H166.624Z" fill="black"/>
<path d="M180.923 124.92V125.092H183.542V122.475H183.371C183.371 123.831 182.271 124.92 180.923 124.92Z" fill="black"/>
<path d="M191.873 116.511H183.284V125.091H191.873V116.511Z" fill="black"/>
<path d="M191.616 125.091V119.428C191.616 117.817 192.924 116.511 194.537 116.511H197.285C198.898 116.511 200.205 117.817 200.205 119.428V125.091H191.616Z" fill="black"/>
<path d="M205.917 124.92V125.092H208.537V122.475H208.365C208.365 123.831 207.266 124.92 205.917 124.92Z" fill="black"/>
<path d="M208.279 125.091V119.428C208.279 117.817 209.586 116.511 211.199 116.511H213.947C215.56 116.511 216.867 117.817 216.867 119.428V125.091H208.279Z" fill="black"/>
<path d="M241.86 116.511V122.174C241.86 123.785 240.552 125.091 238.94 125.091H236.191C234.578 125.091 233.271 123.785 233.271 122.174V116.511H241.86Z" fill="black"/>
<path d="M16.9189 124.833V133.413H11.2503C9.63756 133.413 8.33014 132.107 8.33014 130.496V124.833H16.9189Z" fill="black"/>
<path d="M16.6624 133.413V124.833H22.331C23.9437 124.833 25.2512 126.139 25.2512 127.751V133.413H16.6624Z" fill="black"/>
<path d="M41.9135 124.833H33.3247V133.413H41.9135V124.833Z" fill="black"/>
<path d="M41.6548 133.413V127.751C41.6548 126.139 42.9622 124.833 44.575 124.833H47.3234C48.9362 124.833 50.2436 126.139 50.2436 127.751V133.413H41.6548Z" fill="black"/>
<path d="M55.9561 133.243V133.414H58.5756V130.797H58.4039C58.4039 132.153 57.3045 133.243 55.9561 133.243Z" fill="black"/>
<path d="M66.9058 133.413H58.317V127.751C58.317 126.139 59.6244 124.833 61.2372 124.833H66.9058V133.413Z" fill="black"/>
<path d="M66.6497 124.833H75.2385V130.496C75.2385 132.107 73.931 133.413 72.3183 133.413H66.6497V124.833Z" fill="black"/>
<path d="M83.312 127.287V130.968C83.312 132.324 84.4114 133.413 85.7684 133.413H89.453C90.8186 133.413 91.9094 132.315 91.9094 130.959V127.287C91.9008 125.923 90.8014 124.833 89.4444 124.833H85.7684C84.4114 124.833 83.312 125.932 83.312 127.287Z" fill="black"/>
<path d="M99.9744 127.287V130.968C99.9744 132.324 101.074 133.413 102.431 133.413H106.115C107.481 133.413 108.572 132.315 108.572 130.959V127.287C108.563 125.923 107.464 124.833 106.107 124.833H102.431C101.074 124.833 99.9744 125.932 99.9744 127.287Z" fill="black"/>
<path d="M114.273 133.243V133.414H116.893V130.797H116.721C116.721 132.153 115.622 133.243 114.273 133.243Z" fill="black"/>
<path d="M116.637 133.413V127.751C116.637 126.139 117.944 124.833 119.557 124.833H122.305C123.918 124.833 125.226 126.139 125.226 127.751V133.413H116.637Z" fill="black"/>
<path d="M150.218 133.413H144.549C142.936 133.413 141.629 132.107 141.629 130.496V127.751C141.629 126.139 142.936 124.833 144.549 124.833H150.218V133.413Z" fill="black"/>
<path d="M158.55 124.833H149.961V133.413H158.55V124.833Z" fill="black"/>
<path d="M166.88 124.833H158.292V133.413H166.88V124.833Z" fill="black"/>
<path d="M175.213 124.833H166.624V133.413H175.213V124.833Z" fill="black"/>
<path d="M183.543 124.833H174.954V133.413H183.543V124.833Z" fill="black"/>
<path d="M183.284 124.833H191.873V130.496C191.873 132.107 190.565 133.413 188.953 133.413H183.284V124.833Z" fill="black"/>
<path d="M197.585 133.243V133.414H200.205V130.797H200.033C200.033 132.153 198.933 133.243 197.585 133.243Z" fill="black"/>
<path d="M208.535 133.413H199.946V127.751C199.946 126.139 201.254 124.833 202.867 124.833H208.535V133.413Z" fill="black"/>
<path d="M216.867 124.833H208.279V133.413H216.867V124.833Z" fill="black"/>
<path d="M216.609 133.413V127.751C216.609 126.139 217.916 124.833 219.529 124.833H222.277C223.89 124.833 225.198 126.139 225.198 127.751V133.413H216.609Z" fill="black"/>
<path d="M0 141.735L0 136.073C0 134.462 1.30742 133.156 2.92019 133.156H5.66861C7.28139 133.156 8.5888 134.462 8.5888 136.073V141.735H0Z" fill="black"/>
<path d="M25.2512 133.156V138.819C25.2512 140.43 23.9438 141.736 22.331 141.736H19.5826C17.9698 141.736 16.6624 140.43 16.6624 138.819V133.156H25.2512Z" fill="black"/>
<path d="M30.9634 141.565V141.736H33.583V139.12H33.4112C33.4112 140.475 32.3118 141.565 30.9634 141.565Z" fill="black"/>
<path d="M41.913 133.156H33.3242V141.736H41.913V133.156Z" fill="black"/>
<path d="M58.5759 141.735H52.9073C51.2945 141.735 49.9871 140.429 49.9871 138.818V136.073C49.9871 134.462 51.2945 133.156 52.9073 133.156H58.5759V141.735Z" fill="black"/>
<path d="M66.9059 133.156H58.3171V141.735H66.9059V133.156Z" fill="black"/>
<path d="M116.893 141.735H111.225C109.612 141.735 108.305 140.429 108.305 138.818V136.073C108.305 134.462 109.612 133.156 111.225 133.156H116.893V141.735Z" fill="black"/>
<path d="M125.226 133.156H116.637V141.735H125.226V133.156Z" fill="black"/>
<path d="M133.556 133.156H124.967V141.735H133.556V133.156Z" fill="black"/>
<path d="M133.299 141.735V133.156H138.968C140.58 133.156 141.888 134.462 141.888 136.073V141.735H133.299Z" fill="black"/>
<path d="M158.55 133.156V138.818C158.55 140.429 157.243 141.735 155.63 141.735H152.881C151.269 141.735 149.961 140.429 149.961 138.818V133.156H158.55Z" fill="black"/>
<path d="M175.213 133.156H166.624V141.735H175.213V133.156Z" fill="black"/>
<path d="M200.205 141.735H194.536C192.923 141.735 191.616 140.429 191.616 138.818V136.073C191.616 134.462 192.923 133.156 194.536 133.156H200.205V141.735Z" fill="black"/>
<path d="M208.535 133.156H199.947V141.735H208.535V133.156Z" fill="black"/>
<path d="M216.867 133.156H208.279V141.736H216.867V133.156Z" fill="black"/>
<path d="M233.271 135.61V139.29C233.271 140.646 234.37 141.735 235.727 141.735H239.412C240.778 141.735 241.868 140.637 241.868 139.282V135.61C241.86 134.245 240.76 133.156 239.403 133.156H235.727C234.37 133.156 233.271 134.254 233.271 135.61Z" fill="black"/>
<path d="M8.5888 141.479H0V150.058H8.5888V141.479Z" fill="black"/>
<path d="M8.33008 150.058V141.478H13.9987C15.6115 141.478 16.9189 142.784 16.9189 144.395V150.058H8.33008Z" fill="black"/>
<path d="M22.6311 149.887V150.059H25.2507V147.442H25.0789C25.0789 148.797 23.9795 149.887 22.6311 149.887Z" fill="black"/>
<path d="M33.5811 150.058H24.9923V144.395C24.9923 142.784 26.2997 141.478 27.9124 141.478H33.5811V150.058Z" fill="black"/>
<path d="M33.3242 141.479H41.913V147.141C41.913 148.752 40.6056 150.058 38.9928 150.058H33.3242V141.479Z" fill="black"/>
<path d="M66.9059 141.478H58.3171V150.058H66.9059V141.478Z" fill="black"/>
<path d="M75.2385 141.478H66.6497V150.058H75.2385V141.478Z" fill="black"/>
<path d="M83.5685 141.478H74.9797V150.058H83.5685V141.478Z" fill="black"/>
<path d="M83.312 150.058V144.395C83.312 142.784 84.6194 141.478 86.2322 141.478H88.9806C90.5934 141.478 91.9008 142.784 91.9008 144.395V150.058H83.312Z" fill="black"/>
<path d="M133.556 141.478V150.058H127.887C126.274 150.058 124.967 148.752 124.967 147.141V141.478H133.556Z" fill="black"/>
<path d="M141.888 141.478H133.299V150.058H141.888V141.478Z" fill="black"/>
<path d="M155.93 149.887V150.059H158.55V147.442H158.378C158.378 148.797 157.279 149.887 155.93 149.887Z" fill="black"/>
<path d="M166.88 150.058H158.291V144.395C158.291 142.784 159.599 141.478 161.212 141.478H166.88V150.058Z" fill="black"/>
<path d="M166.624 141.478H175.213V147.141C175.213 148.752 173.905 150.058 172.293 150.058H166.624V141.478Z" fill="black"/>
<path d="M183.284 143.932V147.612C183.284 148.968 184.383 150.058 185.74 150.058H189.425C190.791 150.058 191.881 148.959 191.881 147.604V143.932C191.873 142.568 190.773 141.478 189.416 141.478H185.74C184.383 141.478 183.284 142.576 183.284 143.932Z" fill="black"/>
<path d="M208.535 141.478V150.058H202.867C201.254 150.058 199.947 148.752 199.947 147.141V141.478H208.535Z" fill="black"/>
<path d="M208.279 141.479H216.867V147.141C216.867 148.752 215.56 150.058 213.947 150.058H208.279V141.479Z" fill="black"/>
<path d="M8.5888 149.801H0V158.381H8.5888V149.801Z" fill="black"/>
<path d="M16.9189 149.8H8.33008V158.38H16.9189V149.8Z" fill="black"/>
<path d="M25.2512 149.801H16.6624V158.381H25.2512V149.801Z" fill="black"/>
<path d="M33.5812 149.8H24.9924V158.38H33.5812V149.8Z" fill="black"/>
<path d="M58.5759 158.38H52.9073C51.2945 158.38 49.9871 157.074 49.9871 155.463V152.717C49.9871 151.106 51.2945 149.8 52.9073 149.8H58.5759V158.38Z" fill="black"/>
<path d="M58.3171 149.8H66.9059V155.463C66.9059 157.074 65.5985 158.38 63.9857 158.38H58.3171V149.8Z" fill="black"/>
<path d="M100.231 158.38H94.5623C92.9496 158.38 91.6422 157.074 91.6422 155.463V152.717C91.6422 151.106 92.9496 149.8 94.5623 149.8H100.231V158.38Z" fill="black"/>
<path d="M99.9744 158.38V149.8H105.643C107.256 149.8 108.563 151.106 108.563 152.717V158.38H99.9744Z" fill="black"/>
<path d="M116.637 158.38V152.717C116.637 151.106 117.944 149.8 119.557 149.8H122.305C123.918 149.8 125.226 151.106 125.226 152.717V158.38H116.637Z" fill="black"/>
<path d="M130.936 158.208V158.379H133.555V155.763H133.383C133.383 157.118 132.284 158.208 130.936 158.208Z" fill="black"/>
<path d="M141.888 149.8H133.299V158.38H141.888V149.8Z" fill="black"/>
<path d="M150.218 149.801H141.629V158.381H150.218V149.801Z" fill="black"/>
<path d="M158.55 149.8H149.961V158.38H158.55V149.8Z" fill="black"/>
<path d="M166.88 149.801H158.292V158.381H166.88V149.801Z" fill="black"/>
<path d="M214.248 158.208V158.379H216.867V155.763H216.695C216.695 157.118 215.596 158.208 214.248 158.208Z" fill="black"/>
<path d="M216.609 158.38V152.717C216.609 151.106 217.916 149.8 219.529 149.8H222.277C223.89 149.8 225.198 151.106 225.198 152.717V158.38H216.609Z" fill="black"/>
<path d="M233.271 158.38V152.717C233.271 151.106 234.578 149.8 236.191 149.8H238.94C240.552 149.8 241.86 151.106 241.86 152.717V158.38H233.271Z" fill="black"/>
<path d="M8.5888 158.123H0V166.703H8.5888V158.123Z" fill="black"/>
<path d="M16.9189 158.123H8.33008V166.703H16.9189V158.123Z" fill="black"/>
<path d="M25.2512 158.123H16.6624V166.703H25.2512V158.123Z" fill="black"/>
<path d="M33.5812 158.123H24.9924V166.703H33.5812V158.123Z" fill="black"/>
<path d="M75.2385 166.703H69.5699C67.9571 166.703 66.6497 165.397 66.6497 163.786V161.04C66.6497 159.429 67.9571 158.123 69.5699 158.123H75.2385V166.703Z" fill="black"/>
<path d="M83.5685 158.123H74.9797V166.703H83.5685V158.123Z" fill="black"/>
<path d="M83.312 166.703V158.123H88.9806C90.5934 158.123 91.9008 159.429 91.9008 161.04V166.703H83.312Z" fill="black"/>
<path d="M108.563 158.123V163.786C108.563 165.397 107.256 166.703 105.643 166.703H102.895C101.282 166.703 99.9744 165.397 99.9744 163.786V158.123H108.563Z" fill="black"/>
<path d="M114.273 166.531V166.702H116.893V164.085H116.721C116.721 165.441 115.622 166.531 114.273 166.531Z" fill="black"/>
<path d="M125.226 158.123H116.637V166.703H125.226V158.123Z" fill="black"/>
<path d="M133.556 158.123H124.967V166.703H133.556V158.123Z" fill="black"/>
<path d="M141.888 158.123H133.299V166.703H141.888V158.123Z" fill="black"/>
<path d="M141.629 158.123H150.218V163.786C150.218 165.397 148.91 166.703 147.298 166.703H141.629V158.123Z" fill="black"/>
<path d="M166.88 158.123H158.292V166.703H166.88V158.123Z" fill="black"/>
<path d="M175.213 158.123H166.624V166.703H175.213V158.123Z" fill="black"/>
<path d="M183.543 158.123H174.954V166.703H183.543V158.123Z" fill="black"/>
<path d="M183.284 166.703V158.123H188.953C190.565 158.123 191.873 159.429 191.873 161.04V166.703H183.284Z" fill="black"/>
<path d="M197.585 166.531V166.702H200.205V164.085H200.033C200.033 165.441 198.933 166.531 197.585 166.531Z" fill="black"/>
<path d="M208.535 166.703H199.946V161.04C199.946 159.429 201.254 158.123 202.867 158.123H208.535V166.703Z" fill="black"/>
<path d="M216.867 158.123H208.279V166.703H216.867V158.123Z" fill="black"/>
<path d="M225.198 158.123H216.609V166.703H225.198V158.123Z" fill="black"/>
<path d="M241.86 158.123H233.271V166.703H241.86V158.123Z" fill="black"/>
<path d="M8.58887 166.445V175.025H2.92026C1.30748 175.025 6.38962e-05 173.719 6.38962e-05 172.108V166.445H8.58887Z" fill="black"/>
<path d="M16.9189 166.445H8.33008V175.025H16.9189V166.445Z" fill="black"/>
<path d="M25.2512 166.445H16.6624V175.025H25.2512V166.445Z" fill="black"/>
<path d="M24.9924 166.445H33.5812V172.108C33.5812 173.719 32.2738 175.025 30.661 175.025H24.9924V166.445Z" fill="black"/>
<path d="M50.2437 175.025H44.575C42.9623 175.025 41.6548 173.719 41.6548 172.108V169.362C41.6548 167.751 42.9623 166.445 44.575 166.445H50.2437V175.025Z" fill="black"/>
<path d="M58.5761 166.445H49.9873V175.025H58.5761V166.445Z" fill="black"/>
<path d="M58.3171 175.025V169.362C58.3171 167.751 59.6246 166.445 61.2373 166.445H63.9857C65.5985 166.445 66.9059 167.751 66.9059 169.362V175.025H58.3171Z" fill="black"/>
<path d="M83.5686 166.445V175.025H77.9C76.2872 175.025 74.9798 173.719 74.9798 172.108V166.445H83.5686Z" fill="black"/>
<path d="M83.312 166.445H91.9008V172.108C91.9008 173.719 90.5934 175.025 88.9806 175.025H83.312V166.445Z" fill="black"/>
<path d="M116.893 175.025H111.225C109.612 175.025 108.305 173.719 108.305 172.108V169.362C108.305 167.751 109.612 166.445 111.225 166.445H116.893V175.025Z" fill="black"/>
<path d="M125.226 166.445H116.637V175.025H125.226V166.445Z" fill="black"/>
<path d="M133.556 166.445H124.967V175.025H133.556V166.445Z" fill="black"/>
<path d="M141.888 166.445H133.299V175.025H141.888V166.445Z" fill="black"/>
<path d="M158.55 175.025H152.881C151.269 175.025 149.961 173.719 149.961 172.108V169.362C149.961 167.751 151.269 166.445 152.881 166.445H158.55V175.025Z" fill="black"/>
<path d="M166.88 166.445H158.292V175.025H166.88V166.445Z" fill="black"/>
<path d="M175.213 166.445H166.624V175.025H175.213V166.445Z" fill="black"/>
<path d="M183.543 166.445H174.954V175.025H183.543V166.445Z" fill="black"/>
<path d="M191.873 166.445H183.284V175.025H191.873V166.445Z" fill="black"/>
<path d="M200.205 166.445H191.616V175.025H200.205V166.445Z" fill="black"/>
<path d="M208.535 166.445H199.947V175.025H208.535V166.445Z" fill="black"/>
<path d="M216.867 166.445H208.279V175.025H216.867V166.445Z" fill="black"/>
<path d="M225.198 166.445H216.609V175.025H225.198V166.445Z" fill="black"/>
<path d="M241.86 166.445V172.108C241.86 173.719 240.552 175.025 238.94 175.025H236.191C234.578 175.025 233.271 173.719 233.271 172.108V166.445H241.86Z" fill="black"/>
<path d="M66.6497 183.347V177.685C66.6497 176.074 67.9571 174.768 69.5699 174.768H72.3183C73.931 174.768 75.2385 176.074 75.2385 177.685V183.347H66.6497Z" fill="black"/>
<path d="M99.9744 177.221V180.902C99.9744 182.258 101.074 183.347 102.431 183.347H106.115C107.481 183.347 108.572 182.249 108.572 180.893V177.221C108.563 175.857 107.464 174.768 106.107 174.768H102.431C101.074 174.768 99.9744 175.866 99.9744 177.221Z" fill="black"/>
<path d="M133.556 174.768V183.347H127.887C126.274 183.347 124.967 182.041 124.967 180.43V174.768H133.556Z" fill="black"/>
<path d="M141.888 174.768H133.299V183.347H141.888V174.768Z" fill="black"/>
<path d="M141.629 183.347V177.685C141.629 176.074 142.936 174.768 144.549 174.768H147.298C148.91 174.768 150.218 176.074 150.218 177.685V183.347H141.629Z" fill="black"/>
<path d="M175.213 174.768H166.624V183.347H175.213V174.768Z" fill="black"/>
<path d="M208.535 174.768H199.947V183.347H208.535V174.768Z" fill="black"/>
<path d="M216.867 174.768H208.279V183.347H216.867V174.768Z" fill="black"/>
<path d="M225.198 174.768H216.609V183.347H225.198V174.768Z" fill="black"/>
<path d="M75.2385 183.09V188.752C75.2385 190.363 73.9311 191.669 72.3183 191.669H69.5699C67.9571 191.669 66.6497 190.363 66.6497 188.752V183.09H75.2385Z" fill="black"/>
<path d="M116.637 185.544V189.224C116.637 190.58 117.736 191.669 119.093 191.669H122.778C124.143 191.669 125.234 190.571 125.234 189.216V185.544C125.226 184.179 124.126 183.09 122.769 183.09H119.093C117.736 183.09 116.637 184.188 116.637 185.544Z" fill="black"/>
<path d="M155.93 191.497V191.669H158.55V189.052H158.378C158.378 190.408 157.279 191.497 155.93 191.497Z" fill="black"/>
<path d="M166.88 191.669H158.292V186.007C158.292 184.396 159.599 183.09 161.212 183.09H166.88V191.669Z" fill="black"/>
<path d="M175.213 183.09H166.624V191.669H175.213V183.09Z" fill="black"/>
<path d="M183.284 185.544V189.224C183.284 190.58 184.383 191.669 185.74 191.669H189.425C190.791 191.669 191.881 190.571 191.881 189.216V185.544C191.873 184.179 190.773 183.09 189.416 183.09H185.74C184.383 183.09 183.284 184.188 183.284 185.544Z" fill="black"/>
<path d="M208.535 183.09H199.947V191.669H208.535V183.09Z" fill="black"/>
<path d="M225.198 183.09V191.669H219.529C217.916 191.669 216.609 190.363 216.609 188.752V183.09H225.198Z" fill="black"/>
<path d="M224.941 191.669V183.09H230.61C232.222 183.09 233.53 184.396 233.53 186.007V191.669H224.941Z" fill="black"/>
<path d="M74.9797 193.866V197.547C74.9797 198.902 76.0791 199.992 77.4361 199.992H81.1207C82.4864 199.992 83.5771 198.894 83.5771 197.538V193.866C83.5685 192.502 82.4692 191.412 81.1121 191.412H77.4361C76.0791 191.412 74.9797 192.51 74.9797 193.866Z" fill="black"/>
<path d="M97.6108 199.82V199.991H100.23V197.375H100.059C100.059 198.73 98.9593 199.82 97.6108 199.82Z" fill="black"/>
<path d="M99.9744 199.992V194.329C99.9744 192.718 101.282 191.412 102.895 191.412H105.643C107.256 191.412 108.563 192.718 108.563 194.329V199.992H99.9744Z" fill="black"/>
<path d="M133.556 199.992H124.967V194.329C124.967 192.718 126.274 191.412 127.887 191.412H133.556V199.992Z" fill="black"/>
<path d="M133.299 199.992V194.329C133.299 192.718 134.606 191.412 136.219 191.412H138.968C140.58 191.412 141.888 192.718 141.888 194.329V199.992H133.299Z" fill="black"/>
<path d="M158.55 199.992H152.881C151.269 199.992 149.961 198.686 149.961 197.075V194.329C149.961 192.718 151.269 191.412 152.881 191.412H158.55V199.992Z" fill="black"/>
<path d="M166.88 191.412H158.292V199.992H166.88V191.412Z" fill="black"/>
<path d="M175.213 191.412H166.624V199.992H175.213V191.412Z" fill="black"/>
<path d="M197.585 199.82V199.991H200.205V197.375H200.033C200.033 198.73 198.933 199.82 197.585 199.82Z" fill="black"/>
<path d="M208.535 191.412H199.947V199.992H208.535V191.412Z" fill="black"/>
<path d="M208.279 199.992V194.329C208.279 192.718 209.586 191.412 211.199 191.412H213.947C215.56 191.412 216.867 192.718 216.867 194.329V199.992H208.279Z" fill="black"/>
<path d="M233.53 191.412H224.941V199.992H233.53V191.412Z" fill="black"/>
<path d="M66.6497 208.314V202.651C66.6497 201.04 67.9571 199.734 69.5699 199.734H72.3183C73.931 199.734 75.2385 201.04 75.2385 202.651V208.314H66.6497Z" fill="black"/>
<path d="M91.9009 208.314H86.2323C84.6195 208.314 83.3121 207.008 83.3121 205.397V202.651C83.3121 201.04 84.6195 199.734 86.2323 199.734H91.9009V208.314Z" fill="black"/>
<path d="M100.231 199.734H91.6421V208.314H100.231V199.734Z" fill="black"/>
<path d="M108.563 199.734H99.9744V208.314H108.563V199.734Z" fill="black"/>
<path d="M133.556 199.734V205.397C133.556 207.008 132.248 208.314 130.635 208.314H127.887C126.274 208.314 124.967 207.008 124.967 205.397V199.734H133.556Z" fill="black"/>
<path d="M166.88 199.734V208.314H161.212C159.599 208.314 158.292 207.008 158.292 205.397V199.734H166.88Z" fill="black"/>
<path d="M175.213 199.734H166.624V208.314H175.213V199.734Z" fill="black"/>
<path d="M183.543 199.734H174.954V208.314H183.543V199.734Z" fill="black"/>
<path d="M191.873 199.734H183.284V208.314H191.873V199.734Z" fill="black"/>
<path d="M200.205 199.734H191.616V208.314H200.205V199.734Z" fill="black"/>
<path d="M199.947 199.734H208.535V205.397C208.535 207.008 207.228 208.314 205.615 208.314H199.947V199.734Z" fill="black"/>
<path d="M233.53 199.734H224.941V208.314H233.53V199.734Z" fill="black"/>
<path d="M75.2385 208.057V216.636H69.5699C67.9571 216.636 66.6497 215.33 66.6497 213.719V208.057H75.2385Z" fill="black"/>
<path d="M74.9797 216.636V210.974C74.9797 209.363 76.2872 208.057 77.8999 208.057H80.6483C82.2611 208.057 83.5685 209.363 83.5685 210.974V216.636H74.9797Z" fill="black"/>
<path d="M108.563 208.057V216.636H102.895C101.282 216.636 99.9744 215.33 99.9744 213.719V208.057H108.563Z" fill="black"/>
<path d="M108.304 216.636V208.057H113.973C115.586 208.057 116.893 209.363 116.893 210.974V216.636H108.304Z" fill="black"/>
<path d="M139.268 216.464V216.636H141.887V214.019H141.716C141.716 215.375 140.616 216.464 139.268 216.464Z" fill="black"/>
<path d="M150.218 216.636H141.629V210.974C141.629 209.363 142.936 208.057 144.549 208.057H150.218V216.636Z" fill="black"/>
<path d="M149.961 216.636V210.974C149.961 209.363 151.269 208.057 152.882 208.057H155.63C157.243 208.057 158.55 209.363 158.55 210.974V216.636H149.961Z" fill="black"/>
<path d="M200.205 208.056H191.616V216.636H200.205V208.056Z" fill="black"/>
<path d="M222.58 216.464V216.636H225.199V214.019H225.028C225.028 215.375 223.928 216.464 222.58 216.464Z" fill="black"/>
<path d="M233.53 208.057H224.941V216.636H233.53V208.057Z" fill="black"/>
<path d="M83.312 218.833V222.513C83.312 223.869 84.4114 224.959 85.7684 224.959H89.453C90.8186 224.959 91.9094 223.86 91.9094 222.505V218.833C91.9008 217.469 90.8014 216.379 89.4444 216.379H85.7684C84.4114 216.379 83.312 217.477 83.312 218.833Z" fill="black"/>
<path d="M116.893 216.379H108.304V224.959H116.893V216.379Z" fill="black"/>
<path d="M125.226 216.379H116.637V224.959H125.226V216.379Z" fill="black"/>
<path d="M133.556 216.379H124.967V224.959H133.556V216.379Z" fill="black"/>
<path d="M141.888 216.379H133.299V224.959H141.888V216.379Z" fill="black"/>
<path d="M150.218 216.378H141.629V224.958H150.218V216.378Z" fill="black"/>
<path d="M175.213 224.958H169.544C167.931 224.958 166.624 223.652 166.624 222.041V219.296C166.624 217.685 167.931 216.379 169.544 216.379H175.213V224.958Z" fill="black"/>
<path d="M174.954 224.958V216.378H180.622C182.235 216.378 183.543 217.684 183.543 219.295V224.958H174.954Z" fill="black"/>
<path d="M200.205 216.378V224.958H194.537C192.924 224.958 191.617 223.652 191.617 222.041V216.378H200.205Z" fill="black"/>
<path d="M199.947 224.958V216.379H205.615C207.228 216.379 208.535 217.685 208.535 219.296V224.958H199.947Z" fill="black"/>
<path d="M225.198 224.958H216.609V219.296C216.609 217.685 217.916 216.379 219.529 216.379H225.198V224.958Z" fill="black"/>
<path d="M233.53 216.379H224.941V224.959H233.53V216.379Z" fill="black"/>
<path d="M233.271 224.958V216.379H238.94C240.552 216.379 241.86 217.685 241.86 219.296V224.958H233.271Z" fill="black"/>
<path d="M74.9797 227.155V230.836C74.9797 232.191 76.0791 233.281 77.4361 233.281H81.1207C82.4864 233.281 83.5771 232.183 83.5771 230.827V227.155C83.5685 225.791 82.4692 224.701 81.1121 224.701H77.4361C76.0791 224.701 74.9797 225.799 74.9797 227.155Z" fill="black"/>
<path d="M100.231 233.281H91.6422V227.618C91.6422 226.007 92.9496 224.701 94.5623 224.701H100.231V233.281Z" fill="black"/>
<path d="M108.563 224.701H99.9744V233.281H108.563V224.701Z" fill="black"/>
<path d="M116.893 224.701H108.304V233.281H116.893V224.701Z" fill="black"/>
<path d="M125.226 224.701H116.637V233.281H125.226V224.701Z" fill="black"/>
<path d="M133.556 224.701H124.967V233.281H133.556V224.701Z" fill="black"/>
<path d="M150.218 224.701H141.629V233.281H150.218V224.701Z" fill="black"/>
<path d="M183.543 224.701H174.954V233.281H183.543V224.701Z" fill="black"/>
<path d="M183.284 233.281V224.701H188.953C190.565 224.701 191.873 226.007 191.873 227.618V233.281H183.284Z" fill="black"/>
<path d="M197.585 233.109V233.28H200.205V230.664H200.033C200.033 232.019 198.933 233.109 197.585 233.109Z" fill="black"/>
<path d="M208.535 224.701H199.947V233.281H208.535V224.701Z" fill="black"/>
<path d="M225.198 224.701V230.364C225.198 231.975 223.89 233.281 222.278 233.281H219.529C217.916 233.281 216.609 231.975 216.609 230.364V224.701H225.198Z" fill="black"/>
<path d="M241.86 224.701V230.364C241.86 231.975 240.552 233.281 238.94 233.281H236.191C234.578 233.281 233.271 231.975 233.271 230.364V224.701H241.86Z" fill="black"/>
<path d="M100.231 233.023V241.603H94.5623C92.9496 241.603 91.6422 240.297 91.6422 238.686V233.023H100.231Z" fill="black"/>
<path d="M108.563 233.023H99.9744V241.603H108.563V233.023Z" fill="black"/>
<path d="M108.304 233.023H116.893V238.686C116.893 240.297 115.586 241.603 113.973 241.603H108.304V233.023Z" fill="black"/>
<path d="M133.556 233.023V238.686C133.556 240.297 132.248 241.603 130.635 241.603H127.887C126.274 241.603 124.967 240.297 124.967 238.686V233.023H133.556Z" fill="black"/>
<path d="M150.218 233.023V238.686C150.218 240.297 148.91 241.603 147.297 241.603H144.549C142.936 241.603 141.629 240.297 141.629 238.686V233.023H150.218Z" fill="black"/>
<path d="M166.88 241.603H161.212C159.599 241.603 158.292 240.297 158.292 238.686V235.94C158.292 234.329 159.599 233.023 161.212 233.023H166.88V241.603Z" fill="black"/>
<path d="M175.213 233.023H166.624V241.603H175.213V233.023Z" fill="black"/>
<path d="M183.543 233.023H174.954V241.603H183.543V233.023Z" fill="black"/>
<path d="M191.873 233.023H183.284V241.603H191.873V233.023Z" fill="black"/>
<path d="M200.205 233.023H191.616V241.603H200.205V233.023Z" fill="black"/>
<path d="M208.535 233.023H199.947V241.603H208.535V233.023Z" fill="black"/>
<path d="M208.279 241.603V235.94C208.279 234.329 209.586 233.023 211.199 233.023H213.947C215.56 233.023 216.867 234.329 216.867 235.94V241.603H208.279Z" fill="black"/>
<path d="M51.533 39.2372V20.8192C51.533 12.644 50.4197 10.6493 49.9408 10.1699C49.461 9.69161 47.4641 8.57949 39.2791 8.57949H20.8425C12.6575 8.57949 10.6607 9.69161 10.1818 10.1699C9.70303 10.6493 8.58865 12.644 8.58865 20.8192V39.2372C8.58865 47.4135 9.70303 49.4082 10.1818 49.8876C10.6607 50.3648 12.6575 51.478 20.8425 51.478H39.2791C47.4641 51.478 49.461 50.3648 49.9408 49.8876C50.4197 49.4082 51.533 47.4135 51.533 39.2372ZM39.2791 0C56.1139 0 60.1216 4.0034 60.1216 20.8192C60.1216 37.6361 60.1216 22.4214 60.1216 39.2372C60.1216 56.0541 56.1139 60.0575 39.2791 60.0575C22.4454 60.0575 37.6763 60.0575 20.8425 60.0575C4.00768 60.0575 0 56.0541 0 39.2372C0 22.4214 0 30.2105 0 20.8192C0 4.0034 4.00768 0 20.8425 0C37.6763 0 22.4454 0 39.2791 0ZM34.0114 17.1593C41.2266 17.1593 42.944 18.8759 42.944 26.0813C42.944 33.2889 42.944 26.7686 42.944 33.9751C42.944 41.1816 41.2266 42.8982 34.0114 42.8982C26.7972 42.8982 33.3244 42.8982 26.1102 42.8982C18.8961 42.8982 17.1776 41.1816 17.1776 33.9751C17.1776 26.7686 17.1776 30.1065 17.1776 26.0813C17.1776 18.8759 18.8961 17.1593 26.1102 17.1593C33.3244 17.1593 26.7972 17.1593 34.0114 17.1593Z" fill="black"/>
<path d="M232.928 39.2372V20.8192C232.928 12.644 231.815 10.6493 231.336 10.1699C230.856 9.69161 228.86 8.57949 220.675 8.57949H202.238C194.053 8.57949 192.056 9.69161 191.577 10.1699C191.099 10.6493 189.984 12.644 189.984 20.8192V39.2372C189.984 47.4135 191.099 49.4082 191.577 49.8876C192.056 50.3648 194.053 51.478 202.238 51.478H220.675C228.86 51.478 230.856 50.3648 231.336 49.8876C231.815 49.4082 232.928 47.4135 232.928 39.2372ZM220.675 0C237.509 0 241.517 4.0034 241.517 20.8192C241.517 37.6361 241.517 22.4214 241.517 39.2372C241.517 56.0541 237.509 60.0575 220.675 60.0575C203.841 60.0575 219.072 60.0575 202.238 60.0575C185.403 60.0575 181.396 56.0541 181.396 39.2372C181.396 22.4214 181.396 30.2105 181.396 20.8192C181.396 4.0034 185.403 0 202.238 0C219.072 0 203.841 0 220.675 0ZM215.407 17.1593C222.622 17.1593 224.34 18.8759 224.34 26.0813C224.34 33.2889 224.34 26.7686 224.34 33.9751C224.34 41.1816 222.622 42.8982 215.407 42.8982C208.193 42.8982 214.72 42.8982 207.506 42.8982C200.292 42.8982 198.573 41.1816 198.573 33.9751C198.573 26.7686 198.573 30.1065 198.573 26.0813C198.573 18.8759 200.292 17.1593 207.506 17.1593C214.72 17.1593 208.193 17.1593 215.407 17.1593Z" fill="black"/>
<path d="M51.533 220.439V202.021C51.533 193.846 50.4197 191.851 49.9408 191.372C49.461 190.894 47.4641 189.782 39.2791 189.782H20.8425C12.6575 189.782 10.6607 190.894 10.1818 191.372C9.70303 191.851 8.58865 193.846 8.58865 202.021V220.439C8.58865 228.616 9.70303 230.61 10.1818 231.09C10.6607 231.567 12.6575 232.68 20.8425 232.68H39.2791C47.4641 232.68 49.461 231.567 49.9408 231.09C50.4197 230.61 51.533 228.616 51.533 220.439ZM39.2791 181.202C56.1139 181.202 60.1216 185.206 60.1216 202.021C60.1216 218.838 60.1216 203.624 60.1216 220.439C60.1216 237.256 56.1139 241.26 39.2791 241.26C22.4454 241.26 37.6763 241.26 20.8425 241.26C4.00768 241.26 0 237.256 0 220.439C0 203.624 0 211.413 0 202.021C0 185.206 4.00768 181.202 20.8425 181.202C37.6763 181.202 22.4454 181.202 39.2791 181.202ZM34.0114 198.361C41.2266 198.361 42.944 200.078 42.944 207.283C42.944 214.491 42.944 207.971 42.944 215.177C42.944 222.384 41.2266 224.1 34.0114 224.1C26.7972 224.1 33.3244 224.1 26.1102 224.1C18.8961 224.1 17.1776 222.384 17.1776 215.177C17.1776 207.971 17.1776 211.309 17.1776 207.283C17.1776 200.078 18.8961 198.361 26.1102 198.361C33.3244 198.361 26.7972 198.361 34.0114 198.361Z" fill="black"/>
</svg>
